<svg xmlns:xlink="http://www.w3.org/1999/xlink" xmlns="http://www.w3.org/2000/svg" class="icon flex-none color-icon h-6 w-6 text-secondary" viewBox="0 0 32 32" width="35"  height="35" ><path d="M16.0001 4C22.6276 4 28.0003 9.37263 28.0003 16.0001C28.0003 22.6276 22.6276 28.0003 16.0001 28.0003C9.37263 28.0003 4 22.6276 4 16.0001C4 9.37263 9.37263 4 16.0001 4ZM16.0001 6.57146C10.7929 6.57146 6.57146 10.7929 6.57146 16.0001C6.57146 21.2073 10.7929 25.4288 16.0001 25.4288C21.2073 25.4288 25.4288 21.2073 25.4288 16.0001C25.4288 10.7929 21.2073 6.57146 16.0001 6.57146ZM15.9607 21.0711C16.6704 21.0711 17.2464 21.6471 17.2464 22.3568C17.2464 23.0665 16.6704 23.6425 15.9607 23.6425C15.251 23.6425 14.675 23.0665 14.675 22.3568C14.675 21.6471 15.251 21.0711 15.9607 21.0711ZM16.187 8.99463C17.5242 8.99463 18.6145 9.34435 19.4373 10.0849C20.2602 10.8049 20.6716 11.7924 20.6716 13.0472C20.6716 14.0758 20.4042 14.9193 19.9105 15.5776C19.7253 15.7833 19.1287 16.3387 18.1413 17.2027C17.771 17.5113 17.5036 17.861 17.3184 18.2313C17.1419 18.5836 17.0416 18.9513 17.0159 19.3602L17.0099 19.5685V19.8565H14.6441V19.5685C14.6441 18.7867 14.7676 18.1079 15.0556 17.5524C15.3084 17.0279 16.0379 16.2281 17.2447 15.1353L17.4624 14.9398L17.7093 14.6518C18.0796 14.1993 18.2647 13.7055 18.2647 13.1912C18.2647 12.5124 18.059 11.9775 17.6887 11.5867C17.2979 11.1958 16.7424 11.0107 16.043 11.0107C15.1378 11.0107 14.5001 11.2781 14.1093 11.8541C13.7913 12.2844 13.6267 12.8844 13.5993 13.6387L13.595 13.8701H11.2498C11.2498 12.3478 11.6818 11.1547 12.587 10.2906C13.4715 9.42663 14.6647 8.99463 16.187 8.99463Z"></path></svg>