<svg xmlns:xlink="http://www.w3.org/1999/xlink" xmlns="http://www.w3.org/2000/svg" class="icon flex-none color-icon h-6 w-6 text-secondary" viewBox="0 0 32 32" width="35"  height="35" ><path d="M15.9997 4.08398C17.2423 4.08398 18.2496 5.10857 18.2496 6.37199H25.1872C25.9123 6.37199 26.4999 6.95957 26.4999 7.68473V7.72887C26.4999 8.45404 25.9123 9.04161 25.1872 9.04161H17.3929V23.9136L20.6873 23.9145C21.4125 23.9145 22 24.5021 22 25.2273V25.2714C22 25.9966 21.4125 26.5841 20.6873 26.5841H11.3129C10.5877 26.5841 10.0001 25.9966 10.0001 25.2714V25.2273C10.0001 24.5021 10.5877 23.9145 11.3129 23.9145L14.7683 23.9136V9.04161H6.81303C6.08786 9.04161 5.50029 8.45404 5.50029 7.72887V7.68473C5.50029 6.95957 6.08786 6.37199 6.81303 6.37199H13.7506C13.7506 5.10857 14.7579 4.08398 16.0005 4.08398H15.9997ZM24.8739 10.3483C25.1439 10.4971 25.3637 10.7377 25.4987 11.0345L27.6032 15.6607C28.5292 17.6969 27.7789 20.1727 25.9262 21.1904C25.4052 21.4768 24.8315 21.6256 24.2491 21.6256C22.1783 21.6256 20.4995 19.7807 20.4995 17.5039C20.4995 16.8644 20.6354 16.2327 20.895 15.6607L22.9995 11.0345C23.3448 10.2765 24.1833 9.96841 24.8739 10.3483ZM8.37414 10.3483C8.64413 10.4971 8.86393 10.7377 8.99892 11.0345L11.1035 15.6607C12.0294 17.6969 11.2791 20.1727 9.42641 21.1904C8.90547 21.4768 8.33173 21.6256 7.74935 21.6256C5.67855 21.6256 3.99976 19.7807 3.99976 17.5039C3.99976 16.8644 4.13562 16.2327 4.39522 15.6607L6.49977 11.0345C6.84505 10.2765 7.68358 9.96841 8.37327 10.3483H8.37414Z"></path></svg>