<svg xmlns:xlink="http://www.w3.org/1999/xlink" class="h-6 w-6 flex-none" viewBox="0 0 32 32" xmlns="http://www.w3.org/2000/svg" width="35"  height="35" ><g id="botton_menu/lottery_default"><g id="Group 1556234962"><path id="Vector" d="M27.8034 11.033C27.8408 11.1116 27.8818 11.2082 27.9262 11.321L28.0704 11.7129L28.2359 12.2076C28.453 12.8495 28.2955 13.5953 27.88 14.2462C26.3976 16.5692 24.246 19.2551 21.9299 21.7911C19.0727 24.9185 16.2369 27.3164 13.4892 28.9622C12.6617 29.4579 11.5726 29.4489 10.738 28.9857L10.5351 28.8602L9.58033 28.1921L8.79018 27.627C8.46452 27.3922 8.38355 26.9291 8.61044 26.5914C8.81154 26.2917 9.18704 26.1924 9.49669 26.3386L9.6088 26.4045L10.6134 27.1214L11.3261 27.6179C11.7301 27.8933 12.3529 27.924 12.7712 27.673C17.2531 24.988 22.3534 19.8654 26.7713 13.4346C26.8353 13.3416 26.8798 13.1249 26.8834 12.9542L26.8781 12.8378L26.8514 12.7186L26.62 12.0839C26.5221 11.6722 26.564 11.386 26.8665 11.061C27.2366 10.6629 27.6166 10.6349 27.8043 11.0312L27.8034 11.033ZM8.74569 21.3722L8.98416 21.5266L9.19682 21.6819C9.51537 21.9265 9.58122 22.3933 9.34453 22.7228C9.10784 23.0523 8.65849 23.121 8.34083 22.8763C7.19388 21.9933 6.03803 22.1197 4.67663 23.2979C4.50134 23.4496 4.27 23.5038 4.05022 23.4496L3.9203 23.4044L3.8073 23.3385L1.9752 22.0204C1.64953 21.7857 1.56856 21.3225 1.79546 20.9849C1.96897 20.7258 2.27773 20.6129 2.56158 20.6887L2.68704 20.7357L2.79382 20.7989L4.15432 21.8362L4.21839 21.7866C5.76486 20.6481 7.31134 20.5028 8.74569 21.3722Z" class="fill-brand" fill="#24EE89"></path><path id="Vector_2" d="M17.6073 2.8454L19.128 3.86921C19.063 3.94414 19.0025 4.0254 18.9465 4.11116C18.0593 5.46089 18.1554 7.27376 19.8033 8.48896C21.4513 9.70416 23.4756 9.46401 24.4739 8.23797C24.61 8.07095 24.7142 7.88497 24.7889 7.68545L26.3932 8.76703C26.8728 9.09295 27.0009 9.75111 26.6788 10.2377C26.6717 10.2486 26.6637 10.2594 26.6566 10.2702C24.0949 13.8256 21.5562 16.8915 19.039 19.4664C16.5965 21.9663 14.2323 23.9291 11.9482 25.3564C11.4837 25.648 10.8893 25.6155 10.4578 25.2752L8.96557 24.088C9.09459 24.0022 9.20759 23.9083 9.30102 23.8072C10.1383 22.9062 10.3118 20.8911 8.61232 19.5486C6.9128 18.2061 5.02909 18.4706 3.82341 19.3617C3.68282 19.4655 3.56715 19.5874 3.4755 19.7246L1.99398 18.5482C1.65319 18.2774 1.59446 17.7772 1.86229 17.4314C1.91212 17.3664 1.97262 17.3105 2.04025 17.2644C4.96502 15.2692 7.57303 13.1096 9.86427 10.7848C12.1555 8.46007 14.2572 5.90598 16.1703 3.12167C16.4951 2.64769 17.1339 2.5249 17.6073 2.8454ZM10.5966 17.2328C10.1428 17.3737 9.89185 17.8765 10.036 18.355C10.1801 18.8335 10.6651 19.108 11.1198 18.9671C11.5736 18.8263 11.8245 18.3234 11.6804 17.8449C11.5362 17.3664 11.0513 17.092 10.5966 17.2328ZM15.9114 11.099L15.825 11.1451L14.2216 12.261L12.3593 11.5486C12.2658 11.5125 12.1626 11.5116 12.0683 11.5459C11.8797 11.6145 11.7684 11.8041 11.7898 11.9982L11.812 12.0948L12.4598 13.9402L11.2942 15.4552C11.239 15.5265 11.2079 15.6131 11.2052 15.7043C11.1981 15.9075 11.3315 16.0826 11.5166 16.1341L11.6136 16.1485L13.6397 16.2226L14.8249 17.9036C14.8783 17.9804 14.9557 18.0363 15.0438 18.0643C15.2351 18.1248 15.4371 18.0399 15.5341 17.872L15.5732 17.7817L16.1311 15.9553L17.9766 15.4768C18.0718 15.4524 18.1554 15.3947 18.2133 15.3143C18.3316 15.15 18.3183 14.9297 18.1928 14.7816L18.1207 14.7148L16.4915 13.5078L16.4897 11.5017C16.4897 11.415 16.4639 11.3311 16.4159 11.2597C16.3029 11.0918 16.0929 11.0313 15.914 11.1017L15.9114 11.099ZM18.0718 9.6536C17.618 9.79444 17.3671 10.2973 17.5112 10.7758C17.6554 11.2543 18.1403 11.5288 18.595 11.3879C19.0488 11.2471 19.2997 10.7442 19.1556 10.2657C19.0114 9.78722 18.5265 9.51276 18.0718 9.6536Z" class="fill-secondary"></path></g></g></svg>