<svg xmlns:xlink="http://www.w3.org/1999/xlink" xmlns="http://www.w3.org/2000/svg" class="icon flex-none" viewBox="0 0 32 32" width="35"  height="35" ><path d="M22.0091 5.33661C25.3282 5.33661 28.0187 8.24394 28.0187 11.8298V20.1723C28.0187 23.7582 25.3282 26.6655 22.0091 26.6655C20.1396 26.6655 18.4704 25.7439 17.3678 24.2977V20.8587C18.1661 20.7144 18.9513 20.4416 19.7199 20.0438C20.0356 19.8803 20.1589 19.492 19.9953 19.1755C19.8318 18.859 19.4436 18.7366 19.1271 18.9001C18.5456 19.2009 17.9598 19.416 17.3678 19.5454V17.8674H20.0058L20.1484 17.8561C20.2428 17.8412 20.3337 17.8123 20.4203 17.7704C20.8409 17.5623 21.0367 17.0805 20.8968 16.6468L20.8444 16.5182L16.8668 8.46428C17.9204 6.58785 19.8292 5.33398 22.0082 5.33398L22.0091 5.33661ZM15.9968 19.6949C15.0507 19.6949 14.1177 19.4868 13.1952 19.0671L12.8499 18.9001C12.5333 18.7374 12.1451 18.8625 11.9834 19.179C11.8216 19.4955 11.9458 19.8838 12.2623 20.0455C13.4768 20.669 14.7245 20.9829 15.9977 20.9829H16.016C15.6768 24.1805 13.1209 26.6664 10.0177 26.6664C6.77639 26.6664 4.13137 23.9531 3.98622 20.5492L3.9801 20.2554V11.7467C3.9801 8.20634 6.68283 5.33661 10.0177 5.33661C12.6059 5.33661 14.429 6.67617 15.793 9.35528C15.9216 9.60798 16.058 9.87292 16.2014 10.1518L16.2049 10.1405L16.4007 10.5375C17.2069 12.0947 18.2317 14.0315 19.4751 16.3504C19.4961 16.3836 19.5048 16.4229 19.5048 16.4623C19.5039 16.569 19.434 16.6581 19.3378 16.6887L19.2617 16.7001L16.0554 16.6363L16.0545 19.694L16.0012 19.6958L15.9977 19.6966L15.9968 19.6949ZM21.9076 9.9656C21.1967 9.9656 20.6197 10.5873 20.6197 11.3541C20.6197 12.121 21.1959 12.7426 21.9076 12.7426C22.6185 12.7426 23.1956 12.121 23.1956 11.3541C23.1956 10.5873 22.6194 9.9656 21.9076 9.9656ZM10.0719 9.9656C9.36107 9.9656 8.78398 10.5873 8.78398 11.3541C8.78398 12.121 9.36019 12.7426 10.0719 12.7426C10.7828 12.7426 11.3599 12.121 11.3599 11.3541C11.3599 10.5873 10.7837 9.9656 10.0719 9.9656Z"></path></svg>