<svg xmlns:xlink="http://www.w3.org/1999/xlink" xmlns="http://www.w3.org/2000/svg" class="icon flex-none color-icon h-6 w-6 text-secondary" viewBox="0 0 32 32" width="35"  height="35" ><path d="M13.3646 27.9996C8.19298 27.9996 4 23.8067 4 18.635V13.3646C4 8.19298 8.19298 4 13.3646 4L18.635 4.00003C23.8066 4.00003 27.9996 8.19301 27.9996 13.3647V18.635C27.9996 23.8067 23.8066 27.9997 18.6349 27.9997H13.3646L13.3646 27.9996ZM13.3646 25.9604H18.6349C22.6812 25.9604 25.9605 22.6804 25.9605 18.6349V13.3646C25.9605 9.31831 22.6804 6.03913 18.6351 6.03913H13.3647C9.31836 6.03913 6.03918 9.31917 6.03918 13.3646V18.6349C6.03918 22.6812 9.31925 25.9604 13.3647 25.9604H13.3646ZM16.0003 13.2918C15.3887 13.2918 14.8838 12.8375 14.8038 12.2482L14.7931 12.0846V12.0073C14.7931 11.3406 15.3336 10.7993 16.0012 10.7993C16.6127 10.7993 17.1176 11.2535 17.1976 11.8428L17.2082 12.0064V12.0837C17.2082 12.7504 16.6678 13.2918 16.0002 13.2918H16.0003ZM16.0003 21.8919C15.3887 21.8919 14.8838 21.4377 14.8038 20.8484L14.7931 20.6849V15.5016C14.7931 14.8349 15.3336 14.2936 16.0012 14.2936C16.6127 14.2936 17.1176 14.7478 17.1976 15.3371L17.2082 15.5007V20.684C17.2082 21.3515 16.6678 21.8919 16.0002 21.8919H16.0003Z"></path></svg>