<svg xmlns:xlink="http://www.w3.org/1999/xlink" xmlns="http://www.w3.org/2000/svg" class="icon flex-none" viewBox="0 0 32 32" width="35"  height="35" ><path d="M15.6117 21.723C16.0636 21.723 16.4299 22.0893 16.4299 22.5412V25.1643C16.4299 25.6162 16.0636 25.9825 15.6117 25.9825H14.0715C13.6196 25.9825 13.2533 25.6162 13.2533 25.1643V22.5412C13.2533 22.0893 13.6196 21.723 14.0715 21.723H15.6117ZM11.2557 19.7497C11.7076 19.7497 12.0739 20.116 12.0739 20.5679V25.1646C12.0739 25.6164 11.7076 25.9828 11.2557 25.9828H9.7155C9.26363 25.9828 8.89728 25.6164 8.89728 25.1646V20.5679C8.89728 20.116 9.26363 19.7497 9.7155 19.7497H11.2557ZM16.2933 4.70814C20.6969 4.70814 24.2671 8.27847 24.2671 12.6819C24.2648 14.581 23.5986 16.3246 22.4897 17.6938L23.6495 18.8536L23.6232 18.8791L23.6332 18.8706C23.8836 18.672 24.2485 18.6888 24.4804 18.9199L28.5183 22.9578C28.767 23.2065 28.767 23.6109 28.5183 23.8603L27.4925 24.886C27.2437 25.1348 26.8393 25.1348 26.59 24.886L22.5522 20.8482C22.3211 20.6172 22.3042 20.2522 22.5028 20.001L22.4928 20.0111L21.3353 18.8536C19.9614 19.978 18.2063 20.6534 16.2934 20.6556C11.8898 20.6556 8.3196 17.0853 8.3196 12.6818C8.3196 8.27833 11.8899 4.70801 16.2934 4.70801L16.2933 4.70814ZM16.2933 6.6172C12.9441 6.6172 10.2286 9.33274 10.2286 12.682C10.2286 16.0312 12.9441 18.7467 16.2933 18.7467C19.6425 18.7467 22.3581 16.0312 22.3581 12.682C22.3551 9.3335 19.6419 6.62032 16.2933 6.6172ZM16.4179 9.40104C19.163 9.40104 21.3876 11.4322 21.3876 12.4105C21.3876 13.3888 19.163 15.4176 16.4179 15.4176C13.6727 15.4176 11.4481 13.3497 11.4481 12.4105C11.4481 11.4713 13.6727 9.40104 16.4179 9.40104ZM16.4155 10.1929C15.1912 10.1929 14.1986 11.1847 14.1986 12.4081C14.1986 13.6192 15.1716 14.6036 16.379 14.623L16.4185 14.6234C17.6292 14.6234 18.6128 13.6525 18.6324 12.4475L18.6327 12.4109V12.4081C18.6327 11.1847 17.6401 10.1929 16.4158 10.1929H16.4155ZM16.5415 10.9765C16.4663 11.0948 16.4215 11.2347 16.4181 11.3844L16.4179 11.399L16.4175 11.4041L16.4177 11.4172C16.4251 11.8497 16.7784 12.198 17.2128 12.198C17.4305 12.198 17.628 12.1105 17.7719 11.9685L17.7802 11.9602L17.7771 11.9499C17.8249 12.0898 17.8524 12.2396 17.8553 12.3954L17.8556 12.4156L17.8553 12.4393C17.8426 13.2215 17.2041 13.8517 16.4182 13.8517C15.6244 13.8517 14.9809 13.2087 14.9809 12.4155C14.9809 11.6302 15.6116 10.9921 16.3945 10.9794L16.4182 10.9792H16.5397L16.5418 10.9762L16.5415 10.9765ZM5.45567 15.6823H6.99586C7.44773 15.6823 7.81408 16.0487 7.81408 16.5005V25.1644C7.81408 25.6162 7.44773 25.9826 6.99586 25.9826H5.45567C5.0038 25.9826 4.63745 25.6162 4.63745 25.1644V16.5005C4.63745 16.0487 5.0038 15.6823 5.45567 15.6823Z"></path></svg>