<svg xmlns:xlink="http://www.w3.org/1999/xlink" xmlns="http://www.w3.org/2000/svg" fill="" class="fill-current text-[#FFE924]" viewBox="0 0 32 32"><g id="vector" fill="#FFE924"><path d="M7.65716 13.8363L9.26059 9.19443C9.41494 8.74727 9.90267 8.51001 10.3498 8.66436C10.4715 8.70669 10.5818 8.77461 10.6726 8.86545L13.8954 12.0564L13.1245 15.1469H8.81079L7.65716 13.8363Z" fill="#FFE924"></path><path d="M24.4277 13.8363L22.8243 9.19443C22.67 8.74727 22.1822 8.51001 21.7351 8.66436C21.6134 8.70669 21.5031 8.77461 21.4123 8.86545L18.1895 12.0564L18.9604 15.1469H23.2741L24.4277 13.8363Z" fill="#FFE924"></path><path d="M16.497 5.6895C16.6981 5.79005 16.8613 5.95321 16.9609 6.15518L20.3248 12.9764C20.5762 13.4853 21.1918 13.6943 21.7007 13.4438C21.7077 13.4403 21.7148 13.4368 21.721 13.4332L27.5111 10.4134C28.0147 10.1514 28.6348 10.3481 28.8949 10.8517C29.0334 11.1189 29.0475 11.4329 28.9337 11.7107C27.4547 15.3665 26.5154 18.0742 26.1176 19.8346C25.681 21.7644 25.3106 23.7259 25.0054 25.7191C24.9446 26.1196 24.6015 26.4159 24.1958 26.4186H7.70549C7.28303 26.4203 6.92847 26.1028 6.88349 25.683C6.70622 24.069 6.38077 22.1198 5.90891 19.8355C5.47586 17.7408 4.53303 15.0605 3.08042 11.7954C2.84758 11.2777 3.07865 10.67 3.59637 10.4381C3.87949 10.311 4.20405 10.319 4.48011 10.4601L10.3311 13.4465C10.8365 13.7049 11.4557 13.5038 11.7132 12.9984L11.7185 12.9887L15.1176 6.15166C15.3699 5.64364 15.9872 5.43637 16.4953 5.6895H16.497ZM15.9026 15.0958L13.0944 19.2014L15.9026 23.1729L18.8087 19.2014L15.9026 15.0958Z" fill="#FFE924"></path></g></svg>