<svg xmlns:xlink="http://www.w3.org/1999/xlink" xmlns="http://www.w3.org/2000/svg" class="h-4 w-4 text-primary ease-in duration-300 rotate-0" viewBox="0 0 32 32"><path d="M8.445 20.351h-7.282c-0.201 0-0.403 0.067-0.587 0.168-0.554 0.352-0.738 1.124-0.419 1.728l3.691 6.796c0.101 0.185 0.235 0.336 0.403 0.436 0.537 0.336 1.242 0.134 1.561-0.436l3.658-6.796c0.101-0.185 0.151-0.403 0.151-0.638 0-0.688-0.52-1.259-1.175-1.259z" fill="#31EE88"></path><path d="M25.712 12.985v5.906c0 2.987-1.376 4.447-4.111 4.447s-4.128-1.493-4.128-4.447v-7.685c0-4.631-2.785-7.618-7.081-7.618s-7.064 3.004-7.064 7.618v6.51h2.936v-6.51c0-2.869 1.46-4.447 4.128-4.447 1.896 0 4.128 0.805 4.128 4.447v7.685c0 4.698 2.718 7.601 7.081 7.601s7.081-2.92 7.047-7.601v-5.906h-2.936z" fill="#FFFFFF"></path><path d="M31.853 9.712l-3.608-6.712c-0.101-0.201-0.252-0.352-0.436-0.47-0.57-0.352-1.309-0.151-1.644 0.47l-3.624 6.662c-0.101 0.201-0.168 0.419-0.168 0.638 0 0.705 0.52 1.292 1.191 1.292h7.266c0.201 0 0.403-0.050 0.587-0.168 0.554-0.352 0.755-1.124 0.419-1.712h0.017z" fill="#31EE88"></path></svg>