<svg xmlns:xlink="http://www.w3.org/1999/xlink" xmlns="http://www.w3.org/2000/svg" class="fill-current fill-current" viewBox="0 0 32 32"><g id="bingo/recommendgame"><g id="vector"><path d="M21.0593 6.26918C20.9846 6.27818 20.8972 6.28268 20.809 6.28268C20.1104 6.28268 19.4846 5.96847 19.066 5.4742L19.0633 5.4706L17.6264 3.75371C17.2042 3.25674 16.5784 2.94434 15.8798 2.94434C15.1632 2.94434 14.523 3.27385 14.1035 3.78973L14.0999 3.79423L12.6963 5.53723C12.2786 6.0576 11.6421 6.38712 10.929 6.38712C10.8489 6.38712 10.7688 6.38262 10.6904 6.37451L10.7003 6.37541L8.49818 6.18275C8.43785 6.17735 8.36853 6.17374 8.29831 6.17374C7.03787 6.17374 6.01602 7.1956 6.01602 8.45603C6.01602 8.54336 6.02052 8.62979 6.03043 8.71442L6.02953 8.70361L6.26901 10.9256C6.27711 10.9985 6.28161 11.0822 6.28161 11.1678C6.28161 11.8691 5.96831 12.4966 5.47404 12.9189L3.75445 14.3585C3.25748 14.7807 2.94507 15.4064 2.94507 16.1051C2.94507 16.8217 3.27458 17.4618 3.79046 17.8814L3.79496 17.885L5.53796 19.2885C6.05744 19.7099 6.38695 20.3491 6.38695 21.0649C6.38695 21.1423 6.38335 21.2188 6.37525 21.2944L6.37615 21.2845L6.18348 23.5137C6.17808 23.5713 6.17538 23.6388 6.17538 23.7064C6.17538 24.9668 7.19723 25.9886 8.45766 25.9886C8.54499 25.9886 8.63142 25.9841 8.71605 25.9742L8.70525 25.9751L10.9272 25.7159C11.0001 25.7077 11.0839 25.7032 11.1694 25.7032C11.8716 25.7032 12.5 26.0193 12.9205 26.518L12.9232 26.5216L14.3601 28.225C14.7832 28.7328 15.4152 29.0542 16.1229 29.0542C16.8305 29.0542 17.4635 28.7328 17.883 28.2286L17.8857 28.225L19.2893 26.4748C19.7106 25.9553 20.3498 25.6258 21.0656 25.6258C21.143 25.6258 21.2195 25.6294 21.2952 25.6375L21.2853 25.6366L23.5144 25.8293C23.5721 25.8347 23.6396 25.8374 23.7071 25.8374C24.9675 25.8374 25.9894 24.8155 25.9894 23.5551C25.9894 23.4678 25.9849 23.3814 25.975 23.2967L25.9759 23.3075L25.7364 21.0856C25.7274 21.0099 25.7229 20.9235 25.7229 20.8344C25.7229 20.1339 26.0398 19.5082 26.5386 19.0923L26.5422 19.0896L28.2257 17.6257C28.7335 17.2025 29.0549 16.5705 29.0549 15.8629C29.0549 15.1552 28.7335 14.5223 28.2293 14.1028L28.2257 14.1001L26.4755 12.6965C25.9552 12.2787 25.6257 11.6422 25.6257 10.9292C25.6257 10.8491 25.6302 10.7689 25.6383 10.6906L25.6374 10.7005L25.83 8.47133C25.8354 8.41101 25.839 8.34169 25.839 8.27146C25.839 7.01103 24.8172 5.98918 23.5567 5.98918C23.4694 5.98918 23.383 5.99368 23.2984 6.00359L23.3092 6.00269L21.0593 6.26918ZM22.949 18.7367C21.8245 21.533 19.1344 23.4705 15.9923 23.4705C11.8626 23.4705 8.51438 20.1222 8.51438 15.9925C8.51438 11.8628 11.8626 8.51455 15.9923 8.51455C16.9809 8.51455 17.9244 8.70631 18.7878 9.05473L18.7374 9.03673C21.5338 10.1594 23.4721 12.8477 23.4721 15.9889C23.4721 16.9784 23.2794 17.9228 22.9301 18.7871L22.949 18.7367Z"></path><path d="M16.6415 11.5909L17.6795 13.387C17.7849 13.5716 17.9631 13.7039 18.1738 13.7453L18.1783 13.7462L20.1347 14.1324C20.4795 14.2027 20.7352 14.5034 20.7352 14.8635C20.7352 15.0472 20.6685 15.2146 20.5596 15.3443L19.1902 16.9729C19.084 17.0981 19.0201 17.2619 19.0201 17.4402C19.0201 17.4681 19.0219 17.4951 19.0246 17.5221V17.5185L19.2046 19.5145C19.2046 19.5235 19.2055 19.5334 19.2055 19.5442C19.2055 19.9556 18.8715 20.2897 18.4601 20.2897C18.3637 20.2897 18.2728 20.2717 18.1882 20.2383L18.1936 20.2401L16.2507 19.4947C16.1697 19.4632 16.0761 19.4452 15.9779 19.4452C15.8798 19.4452 15.7862 19.4632 15.6997 19.4965L15.7051 19.4947L13.7956 20.2401C13.7155 20.2717 13.6227 20.2906 13.5264 20.2906C13.1149 20.2906 12.7809 19.9565 12.7809 19.5451C12.7809 19.5199 12.7818 19.4956 12.7845 19.4713V19.474L12.9709 17.478C12.9727 17.46 12.9736 17.4384 12.9736 17.4177C12.9736 17.2322 12.907 17.063 12.7971 16.9315L11.4341 15.3028C11.3251 15.1741 11.2594 15.0066 11.2594 14.823C11.2594 14.4629 11.5151 14.1622 11.8554 14.0928L11.8599 14.0919L13.8091 13.7057C14.0261 13.6616 14.2052 13.5301 14.3133 13.3501L14.3151 13.3465L15.3531 11.59C15.4846 11.3658 15.724 11.2172 15.9986 11.2172C16.2732 11.2172 16.5127 11.3658 16.6424 11.5864L16.6442 11.59L16.6415 11.5909Z"></path></g></g></svg>