<svg xmlns:xlink="http://www.w3.org/1999/xlink" xmlns="http://www.w3.org/2000/svg" class="icon flex-none flex-none h-4.5 w-4.5 text-secondary" viewBox="0 0 32 32" width="32"  height="32" ><path d="M17.5231 10.7485C17.1077 10.7485 16.7385 10.5639 16.5077 10.2408C16.2769 9.8716 16.1846 9.41005 16.3231 9.04081C16.7385 7.65617 16.5539 6.5023 15.6769 5.71766C14.5692 4.70226 12.5845 4.65611 10.5999 5.53305C9.30756 6.13306 4.92285 8.67157 4.92285 15.964C4.92285 22.0565 8.7537 27.0412 13.5076 27.0412C18.5847 27.0412 22.0924 21.4564 22.0924 16.4256C22.0924 14.8102 21.7232 13.4717 21.0309 12.5024C20.2462 11.3485 19.0001 10.7485 17.5231 10.7485ZM9.63064 10.4716C10.5076 10.4716 11.2461 11.2101 11.2461 12.087C11.2461 12.964 10.5537 13.7024 9.63064 13.7024C8.70754 13.7024 8.01522 12.964 8.01522 12.087C8.01522 11.2101 8.7537 10.4716 9.63064 10.4716ZM7.13828 16.1486C7.13828 15.2717 7.87676 14.5332 8.7537 14.5332C9.63064 14.5332 10.3691 15.2717 10.3691 16.1486C10.3691 17.0256 9.63064 17.7641 8.7537 17.7641C7.87676 17.7641 7.13828 17.0717 7.13828 16.1486ZM10.0922 22.1026C9.21525 22.1026 8.47677 21.3641 8.47677 20.4872C8.47677 19.6103 9.21525 18.8718 10.0922 18.8718C10.9691 18.8718 11.7076 19.6103 11.7076 20.4872C11.7076 21.3641 11.0153 22.1026 10.0922 22.1026ZM13.7846 24.5488C12.9076 24.5488 12.1692 23.8103 12.1692 22.9334C12.1692 22.0565 12.9076 21.318 13.7846 21.318C14.6615 21.318 15.4 22.0565 15.4 22.9334C15.4 23.8103 14.7077 24.5488 13.7846 24.5488ZM19.277 17.2564C19.0462 17.7179 18.6308 17.9948 18.1693 18.1333C18.0308 18.1795 17.8923 18.1795 17.7539 18.1795C16.7846 18.1795 15.8615 17.3948 15.4923 16.241C15.2615 15.5025 15.3538 14.764 15.6769 14.164C15.9077 13.7024 16.3231 13.4255 16.7846 13.287C17.8923 13.0101 19.0462 13.8409 19.4616 15.1794C19.6924 15.9179 19.6001 16.6563 19.277 17.2564ZM27.0771 9.22543C27.0771 7.74848 24.8617 5.34843 24.6309 5.0715C24.4925 4.93303 24.3079 4.88688 24.1232 4.93303C23.9386 4.97919 23.8463 5.16381 23.8463 5.34843C23.754 7.47155 23.3386 7.84079 22.9232 8.25618C22.8309 8.34849 22.7386 8.39464 22.6463 8.48695C22.0463 9.13312 21.8617 10.1024 22.2309 10.887C22.4155 11.2562 22.6463 11.5332 22.9694 11.7639C22.8309 13.8409 22.7386 15.0871 22.7386 17.3025C22.7386 19.7949 22.8309 22.1488 23.0617 23.9027C23.3848 26.5796 23.754 27.0873 24.3079 27.0873C24.8617 27.0873 25.231 26.5796 25.5079 23.9488C25.6925 22.1949 25.831 19.841 25.831 17.3487C25.831 15.0871 25.7387 13.8409 25.6002 11.7639C26.4771 11.2562 27.0771 10.3331 27.0771 9.22543Z"></path></svg>