<svg xmlns:xlink="http://www.w3.org/1999/xlink" xmlns="http://www.w3.org/2000/svg" class="icon flex-none" viewBox="0 0 32 32" width="32"  height="32" ><path d="M22.2896 18.7032C24.924 18.7032 27.0596 20.8806 27.0596 23.5672C27.0596 26.2538 24.924 28.4313 22.2896 28.4313C19.6553 28.4313 17.5197 26.2538 17.5197 23.5672C17.5197 20.8806 19.6553 18.7032 22.2896 18.7032ZM11.9137 9.49457L22.4789 14.7247C22.2022 15.4842 21.912 16.2326 21.6083 16.9707C18.3364 17.3179 15.7861 20.1382 15.7861 23.5664C15.7861 24.6739 16.0519 25.7172 16.523 26.6345C16.2757 27.0108 16.0242 27.3829 15.7685 27.7506C15.6617 27.9221 15.4648 28.0146 15.2663 27.9855C15.1789 27.9675 15.1006 27.9195 15.0434 27.8501C12.5016 25.2063 9.76799 22.7563 6.86616 20.5205C6.81233 20.4811 6.76691 20.4314 6.73158 20.374C6.6971 20.3114 6.67018 20.2445 6.65336 20.1751C6.6214 20.0413 6.64663 19.8999 6.72317 19.7859C8.70903 16.7941 10.5124 13.3179 11.9128 9.49457H11.9137ZM22.6555 20.3165C20.8782 20.3165 19.4374 21.785 19.4374 23.5964C19.4374 23.8827 19.6645 24.1141 19.9454 24.1141C20.2264 24.1141 20.4535 23.8827 20.4535 23.5964C20.4535 22.3568 21.4393 21.3521 22.6555 21.3521C22.9364 21.3521 23.1635 21.1206 23.1635 20.8343C23.1635 20.548 22.9364 20.3165 22.6555 20.3165ZM15.3664 14.284C15.2251 14.1074 14.956 14.0817 14.7667 14.2283L13.6144 15.1507C13.5059 15.2407 13.3646 15.2733 13.2367 15.239L11.9145 14.8858C11.8304 14.8635 11.7396 14.8713 11.6571 14.909C11.4519 15.0041 11.3484 15.2553 11.4258 15.4696L11.8733 16.7829C11.9137 16.9081 11.8918 17.0521 11.8144 17.1704L11.0179 18.3988C10.9674 18.4777 10.9397 18.5694 10.938 18.6603C10.9346 18.8866 11.097 19.0435 11.3022 19.0118L12.5983 18.83C12.7253 18.8138 12.8406 18.8635 12.907 18.9629L13.574 19.9873C13.6152 20.0525 13.68 20.0962 13.7582 20.1125C13.955 20.1536 14.1864 20.0148 14.2747 19.8022L14.8113 18.4751C14.8618 18.3474 14.9703 18.2411 15.1015 18.1922L16.4927 17.6959C16.5835 17.665 16.666 17.6085 16.7274 17.5339C16.8804 17.3487 16.8586 17.1044 16.6777 16.9878L15.5498 16.2617C15.4405 16.1914 15.3799 16.0697 15.3883 15.936L15.4489 14.5335C15.4514 14.4426 15.4228 14.3543 15.3664 14.284ZM25.7584 13.3968C26.4775 13.3968 27.0587 13.9909 27.0587 14.7229C27.0587 15.455 26.4758 16.0491 25.7584 16.0491C25.0392 16.0491 24.458 15.455 24.458 14.7229C24.458 13.9909 25.0409 13.3968 25.7584 13.3968ZM6.52971 10.2044C7.72662 10.2044 8.6981 11.1945 8.6981 12.4152C8.6981 13.636 7.72746 14.6261 6.52971 14.6261C5.33281 14.6261 4.36133 13.636 4.36133 12.4152C4.36133 11.1945 5.33197 10.2044 6.52971 10.2044ZM14.1317 3.58124V3.58296C14.1493 3.5881 14.1679 3.59153 14.1872 3.5941C17.6442 5.09772 20.7176 6.62277 23.8768 8.31927C24.0484 8.39728 24.1712 8.5996 24.2082 8.8302C24.2301 8.96307 24.225 9.09937 24.1939 9.23053C23.8078 10.7093 23.3713 12.1563 22.8885 13.5691L12.3359 8.2987C12.8086 6.89881 13.2258 5.45691 13.5782 3.97729C13.6085 3.8367 13.6943 3.71412 13.8163 3.63953C13.9096 3.57695 14.024 3.55638 14.1325 3.5821L14.1317 3.58124ZM21.8623 8.97421L21.7934 8.97764C21.6083 8.99393 21.4334 9.06851 21.2685 9.20053C21.1053 9.33255 20.9657 9.52714 20.8522 9.78346C20.7403 10.0381 20.6873 10.2747 20.694 10.4941C20.7008 10.7136 20.7521 10.9047 20.8505 11.0702C20.9481 11.2348 21.0809 11.3634 21.25 11.4551C21.4166 11.546 21.5873 11.5837 21.7622 11.5674C21.9372 11.5511 22.1046 11.4765 22.2644 11.3445C22.425 11.2125 22.5664 11.0179 22.6883 10.7616C22.8111 10.5053 22.875 10.2678 22.8792 10.0484C22.8835 9.8289 22.838 9.63773 22.7421 9.47314C22.6454 9.30854 22.51 9.18167 22.3359 9.0908C22.2038 9.02222 22.0684 8.98364 21.9313 8.97593L21.8623 8.97421ZM22.0768 9.6343C22.1626 9.67973 22.2232 9.74231 22.2585 9.82204C22.2938 9.90176 22.3031 9.99692 22.2888 10.1084C22.2745 10.2198 22.2341 10.3432 22.1693 10.4813C22.1054 10.6193 22.0365 10.7273 21.9633 10.8062C21.8901 10.885 21.8144 10.9339 21.7353 10.9519C21.6563 10.9699 21.5747 10.9562 21.4906 10.9116C21.4065 10.867 21.3467 10.8036 21.3114 10.7239C21.2752 10.6441 21.2635 10.549 21.2761 10.4375C21.2887 10.3261 21.3257 10.2027 21.388 10.0646C21.4502 9.92662 21.5183 9.81861 21.5923 9.73974C21.6664 9.66087 21.7437 9.61201 21.8262 9.59401C21.9078 9.57601 21.991 9.58972 22.0768 9.6343ZM19.4012 7.98666C19.2667 8.04324 19.1422 8.13239 19.0303 8.25327C18.9185 8.37414 18.8234 8.53102 18.746 8.72047C18.6485 8.96307 18.6064 9.19281 18.619 9.41056C18.6316 9.6283 18.6922 9.82118 18.7999 9.99006C18.9067 10.1589 19.0547 10.2927 19.2448 10.3904C19.4139 10.4778 19.5796 10.5164 19.7419 10.5053C19.9042 10.4941 20.054 10.4333 20.1902 10.3235C20.3105 10.2275 20.4131 10.0929 20.4972 9.92062L20.5325 9.84433L20.6722 9.52543L19.7999 9.07966L19.6132 9.52457L19.969 9.70717L19.9555 9.73546C19.9295 9.78518 19.8967 9.82547 19.858 9.85547C19.81 9.89233 19.7537 9.91119 19.6881 9.91119C19.6225 9.91119 19.5501 9.89062 19.4685 9.84861C19.3769 9.80146 19.3096 9.73631 19.2684 9.65402C19.2271 9.57172 19.2095 9.47399 19.217 9.36255C19.2246 9.25111 19.2557 9.12766 19.3121 8.99222C19.3676 8.85934 19.4315 8.75304 19.5055 8.67589C19.5796 8.59874 19.6595 8.55073 19.7453 8.53273C19.8311 8.51473 19.9202 8.52844 20.0119 8.57474C20.054 8.59617 20.091 8.62103 20.1221 8.64932C20.1532 8.67761 20.1768 8.71018 20.1944 8.74447C20.2121 8.77876 20.223 8.81648 20.2281 8.85591C20.2314 8.88249 20.2314 8.90992 20.2289 8.93821L20.2222 8.98107L20.763 9.25711C20.8042 9.13624 20.8227 9.01622 20.8185 8.89449C20.8143 8.77276 20.7891 8.65789 20.7428 8.54816C20.6966 8.43757 20.631 8.33813 20.546 8.24812C20.4611 8.15811 20.3584 8.08353 20.2382 8.02438C20.1011 7.95666 19.9614 7.91894 19.8184 7.91208C19.6755 7.90522 19.5367 7.93008 19.4012 7.98666ZM17.1302 6.57048L16.2816 8.8722L16.8426 9.14481L17.2884 7.93523L17.301 7.94123L17.5903 9.51343L18.0454 9.74146L18.9647 7.43973L18.3961 7.16713L17.915 8.37157L17.899 8.36385L17.6248 6.80194L17.1302 6.57048ZM16.258 6.16843L15.443 8.47015L16.0133 8.74276L16.851 6.44103L16.258 6.16843ZM14.2032 5.24517L13.463 7.54689L14.4875 8.02009C14.6439 8.09296 14.7869 8.12811 14.9173 8.12468C15.0477 8.12125 15.1595 8.08439 15.2537 8.01495C15.3479 7.94551 15.4161 7.84779 15.459 7.72177C15.496 7.6129 15.5061 7.50831 15.4892 7.4063C15.4724 7.30429 15.4337 7.21342 15.3732 7.13198C15.3244 7.06683 15.2663 7.01282 15.1974 6.96996L15.1435 6.93996L15.1511 6.91767C15.242 6.93824 15.3269 6.93996 15.4068 6.92281C15.4867 6.90567 15.5557 6.86966 15.6162 6.81565C15.676 6.7625 15.7214 6.69307 15.7517 6.6082C15.7937 6.49161 15.8013 6.37674 15.7744 6.26358C15.7475 6.15043 15.6844 6.04498 15.5868 5.94554C15.5052 5.86239 15.3976 5.78781 15.2655 5.72094L15.1831 5.68151L14.2032 5.24517ZM14.3714 6.83537L14.6599 6.96653C14.7205 6.99396 14.7692 7.02825 14.8063 7.06683C14.8433 7.1054 14.8668 7.14998 14.8777 7.19799C14.8887 7.24599 14.8853 7.29743 14.8668 7.35144C14.8416 7.42859 14.797 7.47574 14.7348 7.49203C14.6826 7.50574 14.6178 7.49803 14.5405 7.46802L14.4925 7.44745L14.215 7.31972L14.3722 6.83451L14.3714 6.83537ZM14.649 6.00812L14.9063 6.12385C14.982 6.15814 15.0376 6.20529 15.0729 6.2653C15.1082 6.32531 15.1141 6.39131 15.0897 6.46247C15.0737 6.50961 15.0485 6.54476 15.014 6.56705C14.9795 6.58934 14.94 6.59963 14.8937 6.59877C14.8592 6.59791 14.8231 6.59105 14.7844 6.57734L14.7457 6.56191L14.4992 6.45046L14.6481 6.00984L14.649 6.00812Z" fill="#B3BEC1"></path></svg>