<svg xmlns:xlink="http://www.w3.org/1999/xlink" xmlns="http://www.w3.org/2000/svg" class="icon h-6 w-6" viewBox="0 0 32 32"><path d="M23.4576 12.8027C24.2971 12.8027 24.9774 13.4831 24.9774 14.3226C24.9774 14.4305 24.9661 14.5375 24.9435 14.6419L22.8712 24.2744C22.404 26.4467 20.4831 27.9988 18.2603 27.9988H12.6628C10.4399 27.9988 8.51988 26.4476 8.05183 24.2744L5.97952 14.6419C5.80292 13.8215 6.32491 13.0133 7.14531 12.8367C7.25057 12.814 7.35758 12.8027 7.46459 12.8027H23.4567H23.4576ZM17.9044 4.11679C20.825 4.63182 22.3257 6.46488 22.2517 9.28364L26.5486 10.0414C27.1898 10.1545 27.6178 10.7661 27.5047 11.4073L27.3864 12.078C27.2733 12.7192 26.6617 13.1472 26.0205 13.0341L5.89514 9.48548C5.25396 9.37238 4.82592 8.76078 4.93902 8.1196L5.05734 7.44884C5.17044 6.80766 5.78204 6.37962 6.42322 6.49272L12.0538 7.48451C12.9481 4.81104 14.9848 3.60176 17.9053 4.11592L17.9044 4.11679ZM14.3236 7.88557L19.9793 8.88258C19.928 7.40708 19.1433 6.64932 17.5077 6.36135C15.8721 6.07339 14.876 6.51621 14.3227 7.88557H14.3236Z"></path></svg>