<svg xmlns:xlink="http://www.w3.org/1999/xlink" xmlns="http://www.w3.org/2000/svg" class="icon w-6 h-6 text-secondary" viewBox="0 0 32 32" width="32"  height="32" ><path d="M16 4C9.3726 4 4 9.3726 4 16C4 22.6274 9.3726 28 16 28C22.6274 28 28 22.6274 28 16C28 9.3726 22.6274 4 16 4ZM25.1671 12.0007C25.7022 13.2252 26.0008 14.578 26.0008 16.001C26.0008 17.424 25.7022 18.7768 25.1671 20.0013H20.6577C20.8782 18.7607 20.9984 17.412 20.9984 16.001C20.9984 14.59 20.8781 13.2413 20.6577 12.0007H25.1671ZM13.0018 16.001C13.0018 14.5641 13.112 13.2052 13.3125 12.0007H18.6857C18.8862 13.2052 18.9984 14.564 18.9984 16.001C18.9984 17.4381 18.8862 18.7969 18.6857 20.0014H13.3146C13.1142 18.7969 13.002 17.4381 13.002 16.001H13.0018ZM24.0007 10.0004H20.1927C19.7277 8.4392 19.0904 7.15453 18.3388 6.27668C20.6017 6.82169 22.6039 8.1385 24.0007 10.0004ZM16 7.00222C16.8878 7.00222 17.6875 8.16266 18.2367 10.0025H13.7634C14.3125 8.16073 15.1123 7.00222 16.0001 7.00222H16ZM13.6611 6.27879C12.9095 7.15458 12.2722 8.44329 11.8092 10.0025H8.0012C9.3974 8.14096 11.3989 6.82423 13.661 6.27879H13.6611ZM6.83291 12.0007H11.3423C11.1218 13.2413 11.0015 14.59 11.0015 16.001C11.0015 17.412 11.1219 18.7607 11.3423 20.0013H6.83286C6.28161 18.7398 5.99776 17.3777 5.99915 16.001C5.99915 14.578 6.29779 13.2252 6.83286 12.0007H6.83291ZM7.9994 22.0015H11.8074C12.2724 23.5627 12.9097 24.8474 13.6612 25.7253C11.3983 25.1802 9.3962 23.8634 7.9994 22.0015ZM16 24.9997C15.1122 24.9997 14.3125 23.8393 13.7633 21.9994H18.2366C17.6835 23.8412 16.8878 24.9997 15.9999 24.9997H16ZM18.3388 25.7233C19.0904 24.8475 19.7277 23.5588 20.1908 21.9995H23.9988C22.6025 23.8611 20.6011 25.1779 18.3389 25.7233H18.3388Z"></path></svg>