<svg xmlns:xlink="http://www.w3.org/1999/xlink" xmlns="http://www.w3.org/2000/svg" class="icon w-6 h-6 text-brand" viewBox="0 0 32 32" width="32"  height="32" ><path d="M12.0434 17.0183C12.9801 17.0183 13.7395 17.7778 13.7395 18.7145V25.3283C13.7395 26.265 12.9801 27.0244 12.0434 27.0244H10.2648C8.85937 27.0244 7.721 25.8852 7.721 24.4806V19.5629C7.721 18.1575 8.86019 17.0191 10.2648 17.0191H12.0434V17.0183ZM21.8077 17.0183C23.2132 17.0183 24.3515 18.1575 24.3515 19.5621V24.4798C24.3515 25.8852 23.2123 27.0236 21.8077 27.0236H20.0291C19.0925 27.0236 18.333 26.2641 18.333 25.3275V18.7136C18.333 17.777 19.0925 17.0175 20.0291 17.0175L21.8077 17.0183ZM15.9999 4.97559C22.6881 4.97559 28.1292 10.2983 28.2926 16.9261L28.2966 17.2331V22.2398C28.2966 22.9307 27.7348 23.4909 27.0415 23.4909C26.3915 23.4909 25.8574 22.9985 25.7929 22.368L25.7863 22.2398V17.2331C25.7863 11.845 21.4043 7.47772 15.9991 7.47772C10.6853 7.47772 6.36132 11.6988 6.21596 16.9603L6.21188 17.2331V22.2553C6.21188 22.9462 5.65004 23.5064 4.95673 23.5064C4.30669 23.5064 3.77262 23.014 3.70893 22.3835L3.70239 22.2553V17.2331C3.70239 10.4641 9.20807 4.9764 15.9991 4.9764L15.9999 4.97559Z" fill="#24EE89"></path></svg>