<svg xmlns:xlink="http://www.w3.org/1999/xlink" xmlns="http://www.w3.org/2000/svg" class="icon w-6 h-6 text-secondary flex-none" viewBox="0 0 32 32"><path d="M12 0C18.6274 0 24 5.37257 24 12C24 18.6274 18.6274 24 12 24C5.37257 24 0 18.6274 0 12C0 5.37257 5.37257 0 12 0ZM12 2.57143C6.79286 2.57143 2.57143 6.79286 2.57143 12C2.57143 17.2071 6.79286 21.4286 12 21.4286C17.2071 21.4286 21.4286 17.2071 21.4286 12C21.4286 6.79286 17.2071 2.57143 12 2.57143ZM11.1429 5.256C11.9297 5.256 12.5751 5.862 12.6377 6.63257L12.6429 6.756V12.4637L16.7503 12.4646C17.5783 12.4646 18.2503 13.1366 18.2503 13.9646C18.2503 14.7514 17.6443 15.3969 16.8737 15.4594L16.7503 15.4646H11.1429C11.0246 15.4646 10.9089 15.4509 10.7983 15.4251C10.7923 15.4234 10.7863 15.4226 10.7803 15.4209C10.7589 15.4157 10.7374 15.4097 10.7169 15.4037C10.6963 15.3977 10.6731 15.39 10.6517 15.3831C10.6423 15.3797 10.6329 15.3763 10.6234 15.3729C10.596 15.3626 10.5686 15.3514 10.542 15.3403C10.5249 15.3326 10.5094 15.3257 10.4931 15.318C10.476 15.3094 10.458 15.3009 10.4409 15.2914C10.4194 15.2803 10.398 15.2683 10.3766 15.2554C10.3629 15.2477 10.35 15.2391 10.3363 15.2306C10.3209 15.2211 10.3063 15.2109 10.2917 15.2006C10.2711 15.186 10.2506 15.1714 10.2309 15.156C10.218 15.1466 10.2051 15.1363 10.1923 15.126C10.176 15.1131 10.1614 15.1003 10.146 15.0866C10.1306 15.0729 10.1169 15.06 10.1031 15.0463C10.0886 15.0326 10.0749 15.0189 10.062 15.0051C10.0457 14.9889 10.0303 14.9717 10.0149 14.9537C10.0054 14.9426 9.996 14.9314 9.98657 14.9203C9.97286 14.904 9.96 14.8877 9.94714 14.8706C9.93343 14.8526 9.92057 14.8346 9.90686 14.8157C9.89657 14.8011 9.88714 14.7857 9.87686 14.7711C9.86657 14.7549 9.85629 14.7377 9.846 14.7214C9.83571 14.7051 9.82629 14.6863 9.81686 14.6683C9.80657 14.6494 9.79714 14.6297 9.78771 14.61C9.78 14.5929 9.77229 14.5766 9.76457 14.5594C9.75771 14.5431 9.75086 14.5277 9.74486 14.5114C9.72257 14.454 9.70371 14.3949 9.68829 14.3349C9.65829 14.2166 9.64286 14.0931 9.64286 13.9654V6.75686C9.64286 5.92886 10.3149 5.25686 11.1429 5.25686V5.256Z"></path></svg>