<svg xmlns:xlink="http://www.w3.org/1999/xlink" xmlns="http://www.w3.org/2000/svg" class="icon w-6 h-6 text-secondary" viewBox="0 0 32 32" width="32"  height="32" ><path d="M22.2746 5.33398H9.72598C5.96139 5.33398 3.45166 7.21628 3.45166 11.6083V20.3923C3.45166 24.7844 5.96139 26.6667 9.72598 26.6667H22.2746C26.0392 26.6667 28.5489 24.7844 28.5489 20.3923V11.6083C28.5489 7.21628 26.0392 5.33398 22.2746 5.33398ZM22.8644 12.9761L18.9367 16.1133C18.1085 16.7783 17.0544 17.1046 16.0003 17.1046C14.9462 17.1046 13.8796 16.7783 13.0639 16.1133L9.13619 12.9761C8.73464 12.6498 8.67189 12.0475 8.98561 11.6459C9.31187 11.2444 9.90166 11.1691 10.3032 11.4954L14.2309 14.6325C15.1846 15.398 16.8034 15.398 17.7571 14.6325L21.6848 11.4954C22.0864 11.1691 22.6887 11.2318 23.0024 11.6459C23.3287 12.0475 23.266 12.6498 22.8644 12.9761Z"></path></svg>