<svg xmlns:xlink="http://www.w3.org/1999/xlink" xmlns="http://www.w3.org/2000/svg" class="icon w-6 h-6 fill-secondary" viewBox="0 0 32 32" width="32"  height="32" ><path d="M28.541 13.896v8.333c0 1.858-1.482 3.389-3.329 3.477l-0.169 0.003h-18.088c-1.868 0-3.404-1.476-3.494-3.313l-0.004-0.168v-8.333h25.082zM24.13 19.939h-4.89c-0.423 0-0.771 0.319-0.815 0.727l-0.004 0.089v0.824c0 0.42 0.32 0.767 0.731 0.811l0.089 0.005h4.89c0.423 0 0.77-0.319 0.815-0.727l0.004-0.089v-0.824c0-0.45-0.367-0.816-0.82-0.816zM25.044 6.291c1.924 0 3.497 1.566 3.497 3.48v1.669h-25.083v-1.669c0-1.915 1.574-3.48 3.497-3.48h18.089z" fill="#B3BEC1"></path></svg>