<svg xmlns:xlink="http://www.w3.org/1999/xlink" xmlns="http://www.w3.org/2000/svg" class="icon w-6 h-6 text-secondary" viewBox="0 0 32 32" width="32"  height="32" ><path d="M5.89411 10.5479C5.89411 13.1694 8.07139 15.2946 10.7572 15.2946C13.443 15.2946 15.6203 13.1694 15.6203 10.5479C15.6203 7.92642 13.443 5.80127 10.7572 5.80127C8.07139 5.80127 5.89411 7.92642 5.89411 10.5479Z"></path><path d="M17.6502 10.5887C17.6758 12.8359 19.5661 14.6395 21.8724 14.6173C24.1786 14.5951 26.0275 12.7553 26.0019 10.5081C25.9764 8.26096 24.0861 6.45728 21.7798 6.47952C19.4735 6.50175 17.6247 8.34148 17.6502 10.5887Z"></path><path d="M29.334 22.002V23.5541L20.4203 23.5527C20.4019 23.5527 20.3922 23.5442 20.3912 23.5273C20.2846 21.9305 19.7521 20.477 18.7938 19.1666C18.2365 18.4045 17.5526 17.7311 16.7422 17.1465L16.7388 17.1428L16.7375 17.1381L16.7385 17.1333L16.7416 17.1292C17.9368 16.1523 19.3179 15.5884 20.8849 15.4375C21.4884 15.3793 22.1247 15.3806 22.7938 15.4413C24.1537 15.5646 25.4996 16.0704 26.5834 16.8746C27.7237 17.7204 28.5239 18.7886 28.984 20.0791C29.1611 20.5745 29.2809 21.136 29.309 21.6836C29.3145 21.79 29.3229 21.8961 29.334 22.002Z"></path><path d="M2.66699 24.8661V23.8874C2.69147 23.6222 2.69772 23.3384 2.73366 23.0957C2.94651 21.6546 3.56058 20.3875 4.57587 19.2942C4.80365 19.049 5.04775 18.8214 5.30817 18.6114C6.58214 17.5852 8.04709 16.9914 9.70302 16.83C10.4619 16.7561 11.377 16.7604 12.1754 16.8717C14.5817 17.2064 16.6687 18.5505 17.8521 20.5021C18.4181 21.4355 18.7415 22.4479 18.8224 23.5393C18.8533 23.9558 18.8599 24.3941 18.8422 24.8541C18.8421 24.8573 18.8406 24.8603 18.8382 24.8626C18.8358 24.8648 18.8325 24.8661 18.8292 24.8661H2.66699Z"></path></svg>