<svg xmlns:xlink="http://www.w3.org/1999/xlink" xmlns="http://www.w3.org/2000/svg" class="icon w-6 h-6 text-secondary" viewBox="0 0 32 32" width="32"  height="32" ><path d="M18.8919 26.5124C19.0274 26.8089 18.9461 27.1578 18.6925 27.3669C17.1094 28.5782 14.8931 28.5782 13.31 27.3669C13.0581 27.1587 12.9768 26.8115 13.1106 26.5159C13.2444 26.2202 13.561 26.0471 13.8864 26.0925C15.2884 26.2797 16.7088 26.2797 18.1108 26.0925C18.4379 26.0444 18.7572 26.2159 18.8927 26.5124H18.8919ZM16.1779 3.66797C20.5615 3.66709 24.2927 6.80701 24.9732 11.0699L26.7819 20.9716C26.9874 22.0535 26.2956 23.1048 25.2084 23.362C19.156 24.8576 12.822 24.8576 6.76953 23.362H6.78178C5.69724 23.1022 5.01065 22.0509 5.22057 20.9716L7.02317 11.0699C7.70626 6.80613 11.44 3.66622 15.8245 3.66797H16.1779Z"></path></svg>