<svg xmlns:xlink="http://www.w3.org/1999/xlink" xmlns="http://www.w3.org/2000/svg" class="icon w-6 h-6" viewBox="0 0 32 32"><path d="M19.3502 9.57304L19.4711 9.49649C20.0109 9.16855 20.6507 8.91796 21.3871 8.7415C22.3589 8.50863 23.2968 8.45868 24.1952 8.59566C24.6891 8.6714 25.0259 9.11698 24.947 9.59077C24.9188 9.76239 24.839 9.91468 24.7262 10.0347L24.2009 11.0613C24.557 11.4263 24.8696 11.8711 25.1396 12.3932C25.4022 12.8992 25.5948 13.4213 25.7189 13.9564H27.0943C27.5633 13.9564 27.9492 14.298 27.9952 14.7363L28 14.825V19.367C28 19.8166 27.6439 20.1865 27.187 20.2316L27.0943 20.2364H26.2999C26.1806 20.8714 25.8406 21.5095 25.3015 22.1453C24.7004 22.8535 24.0244 23.3297 23.2831 23.5481L23.2823 25.8389L23.2791 25.9138C23.2815 25.9388 23.2823 25.9638 23.2823 25.9887C23.2823 26.4383 22.9261 26.8082 22.4693 26.8533L22.3766 26.8581H19.5468C19.5105 26.8581 19.4743 26.8557 19.4388 26.8517C19.43 26.8509 19.4211 26.8493 19.4122 26.8485C19.3929 26.8461 19.3744 26.8428 19.3558 26.8388C19.3413 26.8356 19.3276 26.8324 19.3131 26.8291C19.2986 26.8259 19.2841 26.8219 19.2704 26.8171L19.235 26.805C19.2197 26.7993 19.2044 26.7937 19.189 26.7872C19.1455 26.7695 19.1036 26.7478 19.0633 26.7236L19.0368 26.7067C18.9707 26.6632 18.9102 26.6116 18.8571 26.5512C18.8547 26.5479 18.8514 26.5447 18.849 26.5415L18.8385 26.5294L18.8152 26.5004C18.8071 26.4899 18.7991 26.4786 18.7918 26.4674C18.7894 26.4641 18.7878 26.4617 18.7854 26.4585L18.77 26.4343C18.7612 26.4198 18.7523 26.4045 18.7435 26.3892L18.7394 26.3811L17.895 24.7809H13.7083V25.8389C13.7083 26.2885 13.3521 26.6583 12.8953 26.7034L12.8026 26.7083L9.23552 26.7042L9.17992 26.6986C9.16945 26.697 9.15817 26.6954 9.14688 26.693L9.13319 26.6905C9.11546 26.6873 9.09773 26.6833 9.08001 26.6785C9.07114 26.676 9.06228 26.6736 9.05342 26.6712C9.03569 26.6664 9.01796 26.6599 9.00024 26.6543C8.95431 26.6382 8.90919 26.618 8.86568 26.5939C8.81652 26.5665 8.76979 26.535 8.72709 26.5004C8.72547 26.4988 8.72306 26.4972 8.72064 26.4956C6.09226 24.3015 4.68943 21.8455 4.57179 19.1519C4.49525 17.4171 4.73456 15.9579 5.33646 14.6888L4.26641 13.6752C3.91027 13.3375 3.90704 12.788 4.25835 12.4464C4.5863 12.1281 5.10762 12.1039 5.46538 12.3763L5.53951 12.4391L6.30578 13.1651C6.61761 12.7848 6.97376 12.4214 7.37502 12.0725L7.38953 12.1458C6.74331 8.95744 8.91402 5.86978 12.2386 5.25015C15.4471 4.65228 18.5581 6.57159 19.351 9.57304H19.3502ZM21.4734 22.748L21.4742 22.7391C21.4742 22.7415 21.4742 22.7431 21.4734 22.7456L21.4814 22.6827C21.483 22.6722 21.4846 22.6618 21.4871 22.6521C21.4895 22.6384 21.4927 22.6255 21.4959 22.6118C21.5 22.5957 21.5048 22.5788 21.5096 22.5627C21.512 22.5562 21.5137 22.5498 21.5161 22.5433C21.5233 22.5224 21.5314 22.5022 21.5402 22.4821L21.5523 22.4555C21.5596 22.4402 21.5668 22.4257 21.5749 22.4112C21.5829 22.3967 21.5918 22.3822 21.6007 22.3677L21.62 22.3387C21.6281 22.3266 21.6361 22.3153 21.645 22.304C21.6539 22.2927 21.6627 22.2814 21.6724 22.2702C21.6821 22.2581 21.6925 22.2468 21.703 22.2355C21.7119 22.2258 21.7215 22.2162 21.7312 22.2073C21.7385 22.2001 21.7457 22.1936 21.753 22.1864C21.7667 22.1735 21.7812 22.1614 21.7965 22.1493C21.8037 22.1429 21.8118 22.1372 21.8198 22.1316L21.8633 22.101C21.8738 22.0945 21.8851 22.0873 21.8964 22.08C21.9109 22.0711 21.9254 22.0631 21.9391 22.0558C21.9504 22.0502 21.9617 22.0437 21.9737 22.0389L22.0156 22.0204C22.0285 22.0147 22.0422 22.0099 22.0559 22.0051L22.1035 21.989C22.1123 21.9865 22.1212 21.9833 22.1301 21.9809C22.151 21.9753 22.1712 21.9704 22.1921 21.9664C22.1985 21.9648 22.2058 21.964 22.2122 21.9624C22.23 21.9591 22.2485 21.9567 22.2662 21.9543L22.2759 21.9535C22.2968 21.9511 22.3178 21.9495 22.3387 21.9487L22.3589 21.9479C22.873 21.9374 23.3774 21.661 23.8979 21.0478C24.3846 20.4749 24.5731 20.0052 24.5304 19.62L24.5175 19.5386C24.4394 19.1551 24.6376 18.782 24.9784 18.6072C25.0832 18.5516 25.2 18.5153 25.3249 18.5032L25.4175 18.4984H26.1895V15.6936H24.9446C24.9003 15.6936 24.8559 15.6904 24.8132 15.6839C24.7375 15.6726 24.665 15.6533 24.5965 15.6251L24.5183 15.5888C24.4152 15.5356 24.3241 15.4631 24.2492 15.3761C24.1847 15.3012 24.1332 15.215 24.0977 15.1215C24.0727 15.0554 24.0558 14.9853 24.0478 14.9128V14.9088C23.9865 14.3085 23.8117 13.7291 23.52 13.1659C23.2388 12.6236 22.9205 12.232 22.5732 11.9814C22.1736 11.693 22.0922 11.1483 22.3927 10.7648L22.4443 10.7051L22.6602 10.2837C22.3903 10.3111 22.1131 10.3578 21.8295 10.4263C21.1712 10.5843 20.6499 10.8067 20.2583 11.0854L20.1326 11.1805C20.0818 11.2208 20.0303 11.2547 19.9755 11.2821C19.9634 11.2885 19.9521 11.2933 19.9408 11.299C19.9247 11.3062 19.9078 11.3135 19.8909 11.3199L19.8594 11.332L19.8022 11.3497L19.766 11.3594C19.7507 11.3626 19.7353 11.3658 19.72 11.3691C19.7063 11.3715 19.6934 11.3739 19.6797 11.3755C19.6596 11.3787 19.6395 11.3804 19.6193 11.382L19.5943 11.3836C19.575 11.3844 19.5549 11.3852 19.5347 11.3844C19.5202 11.3844 19.5057 11.3836 19.492 11.3828C19.4783 11.382 19.4622 11.3804 19.4477 11.3787C19.4316 11.3771 19.4147 11.3747 19.3985 11.3723C19.3905 11.3707 19.3816 11.3691 19.3728 11.3675C15.5196 10.6237 12.573 10.8631 10.5126 12.0338C7.36858 13.8218 6.23891 15.7532 6.38475 19.0769C6.4766 21.1751 7.5531 23.1323 9.66337 24.9695H11.9002V23.9115C11.9002 23.4313 12.3055 23.0429 12.8058 23.0429H18.4639C18.4864 23.0429 18.509 23.0445 18.5307 23.0461L18.5154 23.0445L18.5549 23.0477C18.5742 23.0501 18.5936 23.0526 18.6129 23.0558C18.6242 23.0574 18.6355 23.0598 18.6468 23.0622C18.6605 23.0654 18.6742 23.0687 18.6879 23.0719C18.7008 23.0751 18.7136 23.0783 18.7257 23.0824L18.7628 23.0945C18.7805 23.1001 18.7982 23.1073 18.816 23.1146L18.849 23.1291L18.8949 23.1517L18.9215 23.1662C18.9376 23.175 18.953 23.1847 18.9683 23.1944C18.9787 23.2008 18.9892 23.2081 18.9997 23.2153C19.0126 23.225 19.0255 23.2347 19.0384 23.2451C19.0762 23.2749 19.1109 23.308 19.1431 23.3442L19.1665 23.3708C19.1745 23.3805 19.1826 23.3902 19.1898 23.3998C19.1971 23.4095 19.206 23.4216 19.2132 23.4329C19.2156 23.4361 19.2172 23.4385 19.2197 23.4417L19.2342 23.4643C19.2438 23.4796 19.2527 23.4949 19.2616 23.511L19.2656 23.5191L20.11 25.1185H21.4774V22.8149L21.479 22.7786V22.7778L21.4806 22.7472L21.4734 22.748ZM20.1696 13.3512C20.9633 13.3512 21.6071 13.9684 21.6071 14.7299C21.6071 15.4913 20.9633 16.1085 20.1696 16.1085C19.376 16.1085 18.7322 15.4913 18.7322 14.7299C18.7322 13.9684 19.376 13.3512 20.1696 13.3512Z"></path></svg>